<svg width="60" height="30" viewBox="0 0 60 30" fill="none" xmlns="http://www.w3.org/2000/svg">
<path d="M2.34371 17.3438H51.9794L43.7571 25.5263C42.8396 26.4394 42.8361 27.9233 43.7492 28.8408C44.6623 29.7584 46.1464 29.7618 47.0639 28.8488L59.3104 16.6613L59.3125 16.659C60.2277 15.7459 60.2306 14.2572 59.3128 13.341L59.3107 13.3388L47.0641 1.15128C46.1468 0.238386 44.6627 0.24155 43.7494 1.15924C42.8363 2.07671 42.8398 3.56065 43.7573 4.47377L51.9794 12.6563H2.34371C1.04926 12.6563 -4.19617e-05 13.7056 -4.19617e-05 15C-4.19617e-05 16.2945 1.04926 17.3438 2.34371 17.3438Z" fill="black"/>
</svg>
