<svg width="31" height="22" viewBox="0 0 31 22" fill="none" xmlns="http://www.w3.org/2000/svg">
<path d="M28.1757 13.8232H7.95391L13.1079 17.9853C14.0177 18.8959 14.0212 20.3756 13.1157 21.2905C12.2101 22.2055 10.7384 22.2089 9.82858 21.2984L0.683842 13.1426L0.68175 13.1404C-0.225758 12.2299 -0.228663 10.7453 0.681518 9.83174L0.68361 9.82952L9.82835 1.67373C10.7381 0.763416 12.2098 0.766571 13.1154 1.68168C14.021 2.59655 14.0175 4.0763 13.1077 4.98685L7.95391 9.14895H28.1757C29.4594 9.14895 30.5 10.1953 30.5 11.4861C30.5 12.7769 29.4594 13.8232 28.1757 13.8232Z" fill="black"/>
</svg>
