<svg width="94" height="58" viewBox="0 0 94 58" fill="none" xmlns="http://www.w3.org/2000/svg">
<path d="M82.9375 11.8125C78.5875 11.8125 78.25 23.7719 78.25 27.4375C78.25 31.1031 78.5875 43.0625 82.9375 43.0625C87.2875 43.0625 87.625 31.1031 87.625 27.4375C87.625 23.7719 87.2875 11.8125 82.9375 11.8125ZM82.9375 39.3375C81.7382 35.4898 81.2096 31.4644 81.375 27.4375C81.2096 23.4106 81.7382 19.3852 82.9375 15.5375C84.1368 19.3852 84.6654 23.4106 84.5 27.4375C84.6654 31.4644 84.1368 35.4898 82.9375 39.3375Z" fill="url(#paint0_linear)"/>
<path d="M82.9375 0.875H67.3125C63.2281 0.875 60.2313 5.40625 58.4172 11.7C54.9688 6.68125 43.6891 4 32.9375 4C20.0609 4 6.375 7.83281 6.375 14.9375H0.125V33.6875H6.375V46.1875C6.375 53.2922 20.0609 57.125 32.9375 57.125C45.75 57.125 59.3438 53.3313 59.4859 46.3031C61.3234 50.9063 63.9453 54 67.3125 54H82.9375C90.0422 54 93.875 40.3141 93.875 27.4375C93.875 14.5609 90.0422 0.875 82.9375 0.875ZM6.375 30.5625H3.25V18.0625H6.375V30.5625ZM32.9375 7.125C46.3516 7.125 56.375 11.25 56.375 14.9375C56.375 18.625 46.3516 22.75 32.9375 22.75C19.5234 22.75 9.5 18.625 9.5 14.9375C9.5 11.25 19.5234 7.125 32.9375 7.125ZM56.375 46.1875C56.375 49.875 46.3516 54 32.9375 54C19.5234 54 9.5 49.875 9.5 46.1875V35.8953C14.2703 39.5578 23.7953 41.5 32.9375 41.5C42.0797 41.5 51.6047 39.5578 56.375 35.8953V46.1875ZM56.375 27.4375V30.5625C56.375 34.25 46.3516 38.375 32.9375 38.375C19.5234 38.375 9.5 34.25 9.5 30.5625V20.2703C14.2703 23.9328 23.7953 25.875 32.9375 25.875C42.3672 25.875 52.2078 23.8109 56.8125 19.9203C56.5222 22.4155 56.3761 24.9254 56.375 27.4375ZM67.3125 50.875C63.625 50.875 59.5 40.8516 59.5 27.4375C59.5 14.0234 63.625 4 67.3125 4H77.6047C73.9422 8.77031 72 18.2953 72 27.4375C72 36.5797 73.9422 46.1047 77.6047 50.875H67.3125ZM82.9375 50.875C79.25 50.875 75.125 40.8516 75.125 27.4375C75.125 14.0234 79.25 4 82.9375 4C86.625 4 90.75 14.0234 90.75 27.4375C90.75 40.8516 86.625 50.875 82.9375 50.875Z" fill="url(#paint1_linear)"/>
<path d="M32.9375 19.625C36.6031 19.625 48.5625 19.2859 48.5625 14.9375C48.5625 10.5891 36.6031 10.25 32.9375 10.25C29.2719 10.25 17.3125 10.5891 17.3125 14.9375C17.3125 19.2859 29.2719 19.625 32.9375 19.625ZM32.9375 13.375C36.9644 13.2095 40.9898 13.738 44.8375 14.9375C40.9898 16.137 36.9644 16.6655 32.9375 16.5C28.9106 16.6655 24.8852 16.137 21.0375 14.9375C24.8852 13.738 28.9106 13.2095 32.9375 13.375Z" fill="url(#paint2_linear)"/>
<path d="M68.875 8.6875H72V11.8125H68.875V8.6875Z" fill="url(#paint3_linear)"/>
<path d="M64.1875 13.375H67.3125V16.5H64.1875V13.375Z" fill="url(#paint4_linear)"/>
<path d="M12.625 43.0625H15.75V46.1875H12.625V43.0625Z" fill="url(#paint5_linear)"/>
<path d="M22 32.125H25.125V35.25H22V32.125Z" fill="url(#paint6_linear)"/>
<defs>
<linearGradient id="paint0_linear" x1="96" y1="20.5" x2="63" y2="41.5" gradientUnits="userSpaceOnUse">
<stop stop-color="#FEDA1B"/>
<stop offset="1" stop-color="#FEB11B"/>
</linearGradient>
<linearGradient id="paint1_linear" x1="94" y1="-3" x2="3.11221e-07" y2="51" gradientUnits="userSpaceOnUse">
<stop stop-color="#FEDA1B"/>
<stop offset="1" stop-color="#FEB11B"/>
</linearGradient>
<linearGradient id="paint2_linear" x1="51" y1="11.5" x2="19" y2="18" gradientUnits="userSpaceOnUse">
<stop stop-color="#FEDA1B"/>
<stop offset="1" stop-color="#FEB11B"/>
</linearGradient>
<linearGradient id="paint3_linear" x1="68.875" y1="71.1875" x2="267.75" y2="71.1875" gradientUnits="userSpaceOnUse">
<stop stop-color="#F9A86D"/>
<stop offset="0.503" stop-color="#F05361"/>
<stop offset="1" stop-color="#B72563"/>
</linearGradient>
<linearGradient id="paint4_linear" x1="64.1875" y1="85.25" x2="263.062" y2="85.25" gradientUnits="userSpaceOnUse">
<stop stop-color="#F9A86D"/>
<stop offset="0.503" stop-color="#F05361"/>
<stop offset="1" stop-color="#B72563"/>
</linearGradient>
<linearGradient id="paint5_linear" x1="12.625" y1="174.312" x2="211.5" y2="174.312" gradientUnits="userSpaceOnUse">
<stop stop-color="#F9A86D"/>
<stop offset="0.503" stop-color="#F05361"/>
<stop offset="1" stop-color="#B72563"/>
</linearGradient>
<linearGradient id="paint6_linear" x1="22" y1="141.5" x2="220.875" y2="141.5" gradientUnits="userSpaceOnUse">
<stop stop-color="#F9A86D"/>
<stop offset="0.503" stop-color="#F05361"/>
<stop offset="1" stop-color="#B72563"/>
</linearGradient>
</defs>
</svg>
