<svg width="100" height="72" viewBox="0 0 100 72" fill="none" xmlns="http://www.w3.org/2000/svg">
<path d="M99.9261 30.4148C99.6404 29.0037 98.5873 27.9445 97.1778 27.6504L89.5804 26.0659L98.4705 19.9142C99.6544 19.0949 100.212 17.7094 99.9263 16.2983C99.6406 14.8872 98.5875 13.8283 97.1782 13.5341L82.0971 10.3889C81.3057 10.2241 80.5294 10.7317 80.3641 11.5239C80.1989 12.3158 80.7069 13.0918 81.4991 13.2568L96.5801 16.4022C96.9239 16.4739 97.0252 16.7323 97.0553 16.8801C97.0854 17.028 97.0922 17.3055 96.8036 17.5053L83.2361 26.8938L66.3408 16.7914C65.2393 16.1329 63.8647 16.1219 62.7529 16.7635L33.5049 33.6402L3.41993 27.366C3.0762 27.2944 2.97483 27.036 2.94475 26.8883C2.91487 26.7407 2.90784 26.4632 3.1965 26.2634L35.5584 3.86985C35.6961 3.77473 35.8685 3.73997 36.0318 3.77395L74.2794 11.751C75.0712 11.9168 75.8473 11.4082 76.0123 10.6161C76.1776 9.82412 75.6694 9.04837 74.8774 8.88314L36.6298 0.90609C35.684 0.708441 34.6858 0.910778 33.8913 1.46076L1.52957 23.8543C0.345633 24.6736 -0.212159 26.0591 0.0737678 27.4701C0.359695 28.8812 1.41278 29.9402 2.8221 30.2341L10.4201 31.8186L1.52977 37.9703C0.345828 38.7896 -0.211964 40.1751 0.0737678 41.5862C0.359499 42.9973 1.41259 44.0563 2.8221 44.3502L10.4201 45.9347L1.52977 52.0864C0.345828 52.9055 -0.211964 54.291 0.0737678 55.7019C0.359499 57.113 1.41259 58.1721 2.8221 58.4663L63.3708 71.0935C63.6081 71.1429 63.8487 71.1674 64.0886 71.1674C64.8046 71.1674 65.5139 70.9506 66.1092 70.5389L84.6671 57.6975C85.3323 57.2372 85.4985 56.3247 85.0382 55.6595C84.5778 54.9941 83.6654 54.8279 83.0002 55.2884L64.4425 68.1298C64.3052 68.2247 64.1321 68.26 63.9688 68.2257L3.42013 55.5986C3.07639 55.5269 2.97483 55.2683 2.94495 55.1207C2.91507 54.973 2.90804 54.6955 3.1967 54.4957L14.3762 46.7599L33.3757 50.7222C33.4766 50.7433 33.577 50.7535 33.6762 50.7535C34.3553 50.7535 34.9645 50.2785 35.1086 49.5875C35.2738 48.7955 34.7656 48.0196 33.9737 47.8544L3.42013 41.4825C3.07639 41.4108 2.97483 41.1524 2.94495 41.0048C2.91507 40.8571 2.90804 40.5794 3.1967 40.3796L14.3762 32.6438L33.4538 36.6222C33.6171 36.6559 33.7807 36.662 33.945 36.6403L53.679 34.0299C53.703 34.8203 54.3503 35.4499 55.1416 35.4499C55.1483 35.4499 55.1549 35.4499 55.1616 35.4499C55.9705 35.439 56.6176 34.7746 56.6066 33.9656L56.6045 33.8086C56.6037 33.7529 56.5992 33.6984 56.5924 33.6443L78.4583 30.7519C78.448 30.8255 78.4412 30.9003 78.4421 30.977L78.4441 31.1341C78.4544 31.9366 79.1081 32.5801 79.9085 32.5801C79.9147 32.5801 79.9212 32.5801 79.9276 32.5801C80.7366 32.5698 81.384 31.9055 81.3737 31.0968L81.3717 30.9397C81.3692 30.7417 81.327 30.5536 81.2536 30.3823L83.4857 30.087C83.7162 30.0566 83.9361 29.9718 84.1271 29.8394L86.2569 28.3656L96.5794 30.5183C96.9231 30.5899 97.0247 30.8485 97.0547 30.9962C97.0846 31.1438 97.0916 31.4214 96.803 31.6212L64.4423 54.0137C64.305 54.1088 64.1327 54.1436 63.9688 54.1098L41.1513 49.3512C40.3598 49.1859 39.5836 49.6941 39.4182 50.4861C39.2532 51.2781 39.7612 52.054 40.5531 52.219L63.3708 56.9776C63.6081 57.0271 63.8487 57.0515 64.0886 57.0515C64.8048 57.0515 65.5141 56.8347 66.1092 56.4228L86.2565 42.4815L96.5796 44.6344C96.9233 44.706 97.0248 44.9644 97.0547 45.1121C97.0846 45.2597 97.0916 45.5374 96.803 45.7372L88.8865 51.2152C88.2213 51.6755 88.0551 52.588 88.5154 53.2532C88.7998 53.6641 89.2566 53.8846 89.7212 53.8846C90.0087 53.8846 90.2991 53.8002 90.5534 53.6242L98.4699 48.1463C99.6538 47.327 100.212 45.9415 99.9259 44.5306C99.6402 43.1196 98.5871 42.0604 97.1776 41.7665L89.5796 40.182L98.4699 34.0303C99.6538 33.2111 100.212 31.8256 99.9261 30.4148ZM64.2169 19.3007C64.4089 19.1898 64.6468 19.1917 64.8372 19.3056L78.9331 27.7342L40.8777 32.7682L64.2169 19.3007Z" fill="url(#paint0_linear)"/>
<path d="M58.4217 42.6855C58.4151 42.6855 58.4084 42.6855 58.4018 42.6855C57.5928 42.6965 56.9457 43.3609 56.9567 44.1699L56.9588 44.3269C56.9696 45.1293 57.6233 45.7723 58.4233 45.7723C58.4299 45.7723 58.4366 45.7723 58.4432 45.7723C59.2522 45.7613 59.8993 45.0969 59.8883 44.2879L59.8862 44.1309C59.8752 43.3285 59.2215 42.6855 58.4217 42.6855Z" fill="url(#paint1_linear)"/>
<path d="M58.4097 50.7246C58.4159 50.7246 58.4224 50.7246 58.4288 50.7246C59.2378 50.7142 59.8853 50.05 59.8749 49.2412L59.873 49.0841C59.8626 48.2752 59.2013 47.6201 58.3896 47.6381C57.5806 47.6484 56.9331 48.3127 56.9435 49.1214L56.9454 49.2785C56.9556 50.081 57.6093 50.7246 58.4097 50.7246Z" fill="url(#paint2_linear)"/>
<path d="M60.8368 48.1777L60.9928 48.1758C61.8018 48.1654 62.4493 47.5012 62.4387 46.6922C62.4284 45.8832 61.7631 45.2334 60.9551 45.2463L60.7991 45.2482C59.9901 45.2586 59.3426 45.9228 59.3532 46.7318C59.3635 47.5344 60.0172 48.1779 60.8176 48.1779C60.8241 48.1777 60.8305 48.1777 60.8368 48.1777Z" fill="url(#paint3_linear)"/>
<path d="M55.9932 45.2325L55.8371 45.2347C55.0282 45.2456 54.3813 45.9101 54.3922 46.7192C54.4032 47.5214 55.0567 48.1644 55.8567 48.1644C55.8633 48.1644 55.8702 48.1644 55.8768 48.1644L56.0328 48.1622C56.8418 48.1513 57.4887 47.4868 57.4778 46.6776C57.4668 45.8687 56.8022 45.223 55.9932 45.2325Z" fill="url(#paint4_linear)"/>
<path d="M69.4384 36.0902C68.6294 36.1006 67.982 36.7648 67.9923 37.5736L67.9943 37.7306C68.0046 38.5332 68.6583 39.1768 69.4587 39.1768C69.465 39.1768 69.4714 39.1768 69.4779 39.1768C70.2868 39.1664 70.9343 38.5021 70.924 37.6933L70.922 37.5363C70.9115 36.7275 70.2484 36.0719 69.4384 36.0902Z" fill="url(#paint5_linear)"/>
<path d="M69.4247 41.0421C68.6157 41.0524 67.9683 41.7167 67.9786 42.5255L67.9806 42.6825C67.9909 43.485 68.6447 44.1286 69.445 44.1286C69.4513 44.1286 69.4577 44.1286 69.4642 44.1286C70.2732 44.1182 70.9206 43.454 70.9103 42.6452L70.9083 42.4882C70.8978 41.6794 70.2363 41.0333 69.4247 41.0421Z" fill="url(#paint6_linear)"/>
<path d="M71.8737 41.5812L72.0297 41.579C72.8387 41.5681 73.4858 40.9036 73.4748 40.0946C73.4639 39.2857 72.7938 38.6394 71.9905 38.6495L71.8344 38.6517C71.0254 38.6626 70.3784 39.3271 70.3893 40.1361C70.4 40.9384 71.0537 41.5812 71.8537 41.5812C71.8604 41.5814 71.867 41.5814 71.8737 41.5812Z" fill="url(#paint7_linear)"/>
<path d="M66.8742 38.6387C66.0653 38.649 65.4178 39.3133 65.4283 40.1223C65.4387 40.9248 66.0924 41.5684 66.8928 41.5684C66.8992 41.5684 66.9055 41.5684 66.9119 41.5684L67.068 41.5664C67.877 41.556 68.5244 40.8918 68.5139 40.0828C68.5035 39.2738 67.844 38.6236 67.0303 38.6369L66.8742 38.6387Z" fill="url(#paint8_linear)"/>
<path d="M78.4288 35.9289L78.4308 36.0859C78.4411 36.8884 79.0948 37.532 79.8952 37.532C79.9015 37.532 79.9079 37.532 79.9144 37.532C80.7234 37.5216 81.3708 36.8574 81.3605 36.0486L81.3585 35.8916C81.3482 35.0826 80.6857 34.4336 79.8751 34.4455C79.0659 34.4556 78.4185 35.1199 78.4288 35.9289Z" fill="url(#paint9_linear)"/>
<path d="M82.3034 34.9855C82.3099 34.9855 82.3161 34.9855 82.3226 34.9855L82.4786 34.9835C83.2876 34.9732 83.9351 34.3089 83.9245 33.4999C83.9142 32.6909 83.2427 32.0376 82.4409 32.054L82.2849 32.056C81.4759 32.0663 80.8284 32.7306 80.839 33.5396C80.8493 34.3419 81.5031 34.9855 82.3034 34.9855Z" fill="url(#paint10_linear)"/>
<path d="M77.48 32.0403L77.324 32.0422C76.515 32.0526 75.8675 32.7169 75.8781 33.5258C75.8884 34.3284 76.5421 34.9719 77.3425 34.9719C77.349 34.9719 77.3552 34.9719 77.3616 34.9719L77.5177 34.97C78.3267 34.9596 78.9741 34.2954 78.9636 33.4864C78.9533 32.6772 78.2824 32.0253 77.48 32.0403Z" fill="url(#paint11_linear)"/>
<path d="M44.1043 38.96C44.0977 38.96 44.0911 38.96 44.0844 38.96C43.2754 38.9709 42.6284 39.6354 42.6393 40.4443L42.6414 40.6014C42.6522 41.4037 43.3059 42.0467 44.1059 42.0467C44.1125 42.0467 44.1192 42.0467 44.1258 42.0467C44.9348 42.0357 45.5819 41.3713 45.5709 40.5623L45.5688 40.4053C45.558 39.6029 44.9043 38.96 44.1043 38.96Z" fill="url(#paint12_linear)"/>
<path d="M44.0722 43.9122C43.2632 43.9225 42.6157 44.5866 42.6261 45.3956L42.6281 45.5526C42.6384 46.3551 43.2921 46.9987 44.0925 46.9987C44.0988 46.9987 44.1052 46.9987 44.1116 46.9987C44.9206 46.9883 45.5681 46.3243 45.5577 45.5153L45.5558 45.3583C45.5452 44.5493 44.8781 43.9055 44.0722 43.9122Z" fill="url(#paint13_linear)"/>
<path d="M46.5206 44.4515L46.6767 44.4493C47.4857 44.4384 48.1328 43.7739 48.1218 42.9649C48.1109 42.156 47.4419 41.5036 46.6374 41.5198L46.4814 41.522C45.6724 41.5329 45.0253 42.1974 45.0363 43.0063C45.047 43.8087 45.7007 44.4515 46.5007 44.4515C46.5072 44.4515 46.514 44.4515 46.5206 44.4515Z" fill="url(#paint14_linear)"/>
<path d="M41.5207 41.5086C40.7117 41.519 40.0643 42.1832 40.0748 42.9922C40.0852 43.7948 40.7389 44.4383 41.5393 44.4383C41.5457 44.4383 41.552 44.4383 41.5584 44.4383L41.7145 44.4363C42.5235 44.426 43.1709 43.7617 43.1604 42.9528C43.15 42.1436 42.4871 41.5014 41.6768 41.5069L41.5207 41.5086Z" fill="url(#paint15_linear)"/>
<path d="M53.6617 38.7989L53.6637 38.956C53.674 39.7585 54.3278 40.4021 55.1281 40.4021C55.1344 40.4021 55.1408 40.4021 55.1473 40.4021C55.9563 40.3917 56.6037 39.7275 56.5934 38.9187L56.5914 38.7616C56.5811 37.9526 55.9137 37.3058 55.108 37.3155C54.299 37.3257 53.6516 37.99 53.6617 38.7989Z" fill="url(#paint16_linear)"/>
<path d="M57.6738 34.9239L57.5178 34.9259C56.7088 34.9362 56.0614 35.6005 56.0719 36.4095C56.0823 37.212 56.736 37.8556 57.5363 37.8556C57.5428 37.8556 57.549 37.8556 57.5555 37.8556L57.7115 37.8536C58.5205 37.8433 59.168 37.179 59.1574 36.37C59.1471 35.5608 58.4764 34.9153 57.6738 34.9239Z" fill="url(#paint17_linear)"/>
<path d="M52.7119 34.9103L52.5559 34.9124C51.7469 34.9234 51.1 35.5878 51.111 36.397C51.1219 37.1991 51.7754 37.8421 52.5754 37.8421C52.5821 37.8421 52.5889 37.8421 52.5955 37.8421L52.7516 37.84C53.5606 37.829 54.2075 37.1646 54.1965 36.3554C54.1854 35.5464 53.5188 34.9003 52.7119 34.9103Z" fill="url(#paint18_linear)"/>
<path d="M30.9604 39.4919C30.967 39.4919 30.9737 39.4919 30.9803 39.4919C31.7893 39.481 32.4364 38.8165 32.4254 38.0075L32.4233 37.8505C32.4123 37.0415 31.7561 36.396 30.9389 36.4054C30.1299 36.4163 29.4829 37.0808 29.4938 37.8897L29.4959 38.0468C29.5069 38.8489 30.1604 39.4919 30.9604 39.4919Z" fill="url(#paint19_linear)"/>
<path d="M30.947 44.444C30.9532 44.444 30.9597 44.444 30.9661 44.444C31.7751 44.4336 32.4226 43.7693 32.4122 42.9606L32.4103 42.8035C32.3999 42.001 31.7462 41.3574 30.9458 41.3574C30.9396 41.3574 30.9331 41.3574 30.9267 41.3574C30.1177 41.3678 29.4702 42.032 29.4806 42.8408L29.4825 42.9979C29.4929 43.8004 30.1466 44.444 30.947 44.444Z" fill="url(#paint20_linear)"/>
<path d="M33.3743 41.8966L33.5304 41.8946C34.3394 41.8843 34.9868 41.22 34.9763 40.4111C34.9659 39.6021 34.2999 38.9484 33.4927 38.9652L33.3367 38.9671C32.5277 38.9775 31.8802 39.6417 31.8908 40.4507C31.9011 41.2532 32.5548 41.8968 33.3552 41.8968C33.3617 41.8966 33.3679 41.8966 33.3743 41.8966Z" fill="url(#paint21_linear)"/>
<path d="M28.3745 38.9544C27.5655 38.9653 26.9184 39.6298 26.9293 40.4388C26.9401 41.2411 27.5938 41.8839 28.3938 41.8839C28.4004 41.8839 28.4073 41.8839 28.4139 41.8839L28.57 41.8817C29.3789 41.8708 30.026 41.2063 30.0151 40.3973C30.0041 39.5884 29.3368 38.9442 28.5307 38.9522L28.3745 38.9544Z" fill="url(#paint22_linear)"/>
<path d="M17.2289 37.5233C17.2356 37.5233 17.2422 37.5233 17.2489 37.5233C18.0579 37.5124 18.7049 36.848 18.694 36.039L18.6918 35.8819C18.6809 35.0729 18.0223 34.4208 17.2075 34.4368C16.3985 34.4477 15.7514 35.1122 15.7623 35.9212L15.7645 36.0782C15.7754 36.8804 16.4289 37.5233 17.2289 37.5233Z" fill="url(#paint23_linear)"/>
<path d="M17.2158 42.4754C17.2224 42.4754 17.229 42.4754 17.2357 42.4754C18.0447 42.4644 18.6917 41.8 18.6808 40.991L18.6787 40.834C18.6677 40.025 18.0109 39.3765 17.1943 39.3888C16.3853 39.3998 15.7382 40.0642 15.7492 40.8732L15.7513 41.0303C15.7621 41.8324 16.4158 42.4754 17.2158 42.4754Z" fill="url(#paint24_linear)"/>
<path d="M19.6437 39.928L19.7997 39.9259C20.6087 39.915 21.2558 39.2505 21.2449 38.4415C21.2339 37.6325 20.5703 36.98 19.7605 36.9964L19.6044 36.9985C18.7954 37.0095 18.1484 37.6739 18.1593 38.4829C18.1701 39.2853 18.8238 39.928 19.6238 39.928C19.6304 39.9282 19.6372 39.9282 19.6437 39.928Z" fill="url(#paint25_linear)"/>
<path d="M14.6443 36.9853C13.8353 36.9956 13.1878 37.6599 13.1984 38.4688C13.2087 39.2714 13.8624 39.9149 14.6628 39.9149C14.6693 39.9149 14.6755 39.9149 14.682 39.9149L14.838 39.913C15.647 39.9026 16.2945 39.2384 16.2839 38.4294C16.2736 37.6204 15.6021 36.9741 14.8003 36.9835L14.6443 36.9853Z" fill="url(#paint26_linear)"/>
<defs>
<linearGradient id="paint0_linear" x1="-10.1563" y1="81.3269" x2="118.246" y2="65.9571" gradientUnits="userSpaceOnUse">
<stop stop-color="#FEB11B"/>
<stop offset="1" stop-color="#FEDA1B"/>
</linearGradient>
<linearGradient id="paint1_linear" x1="56.6588" y1="46.2181" x2="60.4531" y2="45.9147" gradientUnits="userSpaceOnUse">
<stop stop-color="#FEB11B"/>
<stop offset="1" stop-color="#FEDA1B"/>
</linearGradient>
<linearGradient id="paint2_linear" x1="56.6456" y1="51.1704" x2="60.4397" y2="50.8671" gradientUnits="userSpaceOnUse">
<stop stop-color="#FEB11B"/>
<stop offset="1" stop-color="#FEDA1B"/>
</linearGradient>
<linearGradient id="paint3_linear" x1="59.0396" y1="48.6014" x2="63.0273" y2="48.248" gradientUnits="userSpaceOnUse">
<stop stop-color="#FEB11B"/>
<stop offset="1" stop-color="#FEDA1B"/>
</linearGradient>
<linearGradient id="paint4_linear" x1="54.0787" y1="48.5879" x2="58.0664" y2="48.2345" gradientUnits="userSpaceOnUse">
<stop stop-color="#FEB11B"/>
<stop offset="1" stop-color="#FEDA1B"/>
</linearGradient>
<linearGradient id="paint5_linear" x1="67.6944" y1="39.6226" x2="71.4887" y2="39.3192" gradientUnits="userSpaceOnUse">
<stop stop-color="#FEB11B"/>
<stop offset="1" stop-color="#FEDA1B"/>
</linearGradient>
<linearGradient id="paint6_linear" x1="67.6807" y1="44.5744" x2="71.4751" y2="44.271" gradientUnits="userSpaceOnUse">
<stop stop-color="#FEB11B"/>
<stop offset="1" stop-color="#FEDA1B"/>
</linearGradient>
<linearGradient id="paint7_linear" x1="70.0758" y1="42.0048" x2="74.0635" y2="41.6515" gradientUnits="userSpaceOnUse">
<stop stop-color="#FEB11B"/>
<stop offset="1" stop-color="#FEDA1B"/>
</linearGradient>
<linearGradient id="paint8_linear" x1="65.1148" y1="41.9918" x2="69.1025" y2="41.6384" gradientUnits="userSpaceOnUse">
<stop stop-color="#FEB11B"/>
<stop offset="1" stop-color="#FEDA1B"/>
</linearGradient>
<linearGradient id="paint9_linear" x1="78.1309" y1="37.9778" x2="81.9252" y2="37.6744" gradientUnits="userSpaceOnUse">
<stop stop-color="#FEB11B"/>
<stop offset="1" stop-color="#FEDA1B"/>
</linearGradient>
<linearGradient id="paint10_linear" x1="80.5255" y1="35.4089" x2="84.5132" y2="35.0556" gradientUnits="userSpaceOnUse">
<stop stop-color="#FEB11B"/>
<stop offset="1" stop-color="#FEDA1B"/>
</linearGradient>
<linearGradient id="paint11_linear" x1="75.5645" y1="35.3954" x2="79.5522" y2="35.0421" gradientUnits="userSpaceOnUse">
<stop stop-color="#FEB11B"/>
<stop offset="1" stop-color="#FEDA1B"/>
</linearGradient>
<linearGradient id="paint12_linear" x1="42.3414" y1="42.4925" x2="46.1357" y2="42.1891" gradientUnits="userSpaceOnUse">
<stop stop-color="#FEB11B"/>
<stop offset="1" stop-color="#FEDA1B"/>
</linearGradient>
<linearGradient id="paint13_linear" x1="42.3282" y1="47.4445" x2="46.1225" y2="47.1411" gradientUnits="userSpaceOnUse">
<stop stop-color="#FEB11B"/>
<stop offset="1" stop-color="#FEDA1B"/>
</linearGradient>
<linearGradient id="paint14_linear" x1="44.7227" y1="44.875" x2="48.7105" y2="44.5216" gradientUnits="userSpaceOnUse">
<stop stop-color="#FEB11B"/>
<stop offset="1" stop-color="#FEDA1B"/>
</linearGradient>
<linearGradient id="paint15_linear" x1="39.7613" y1="44.8617" x2="43.749" y2="44.5083" gradientUnits="userSpaceOnUse">
<stop stop-color="#FEB11B"/>
<stop offset="1" stop-color="#FEDA1B"/>
</linearGradient>
<linearGradient id="paint16_linear" x1="53.3639" y1="40.8479" x2="57.1581" y2="40.5445" gradientUnits="userSpaceOnUse">
<stop stop-color="#FEB11B"/>
<stop offset="1" stop-color="#FEDA1B"/>
</linearGradient>
<linearGradient id="paint17_linear" x1="55.7584" y1="38.279" x2="59.7461" y2="37.9257" gradientUnits="userSpaceOnUse">
<stop stop-color="#FEB11B"/>
<stop offset="1" stop-color="#FEDA1B"/>
</linearGradient>
<linearGradient id="paint18_linear" x1="50.7974" y1="38.2656" x2="54.7852" y2="37.9123" gradientUnits="userSpaceOnUse">
<stop stop-color="#FEB11B"/>
<stop offset="1" stop-color="#FEDA1B"/>
</linearGradient>
<linearGradient id="paint19_linear" x1="29.1959" y1="39.9377" x2="32.9902" y2="39.6343" gradientUnits="userSpaceOnUse">
<stop stop-color="#FEB11B"/>
<stop offset="1" stop-color="#FEDA1B"/>
</linearGradient>
<linearGradient id="paint20_linear" x1="29.1827" y1="44.8898" x2="32.977" y2="44.5863" gradientUnits="userSpaceOnUse">
<stop stop-color="#FEB11B"/>
<stop offset="1" stop-color="#FEDA1B"/>
</linearGradient>
<linearGradient id="paint21_linear" x1="31.5772" y1="42.3203" x2="35.5649" y2="41.967" gradientUnits="userSpaceOnUse">
<stop stop-color="#FEB11B"/>
<stop offset="1" stop-color="#FEDA1B"/>
</linearGradient>
<linearGradient id="paint22_linear" x1="26.6158" y1="42.3073" x2="30.6037" y2="41.9539" gradientUnits="userSpaceOnUse">
<stop stop-color="#FEB11B"/>
<stop offset="1" stop-color="#FEDA1B"/>
</linearGradient>
<linearGradient id="paint23_linear" x1="15.4644" y1="37.9692" x2="19.2588" y2="37.6658" gradientUnits="userSpaceOnUse">
<stop stop-color="#FEB11B"/>
<stop offset="1" stop-color="#FEDA1B"/>
</linearGradient>
<linearGradient id="paint24_linear" x1="15.4513" y1="42.9212" x2="19.2456" y2="42.6178" gradientUnits="userSpaceOnUse">
<stop stop-color="#FEB11B"/>
<stop offset="1" stop-color="#FEDA1B"/>
</linearGradient>
<linearGradient id="paint25_linear" x1="17.8458" y1="40.3517" x2="21.8335" y2="39.9984" gradientUnits="userSpaceOnUse">
<stop stop-color="#FEB11B"/>
<stop offset="1" stop-color="#FEDA1B"/>
</linearGradient>
<linearGradient id="paint26_linear" x1="12.8848" y1="40.3384" x2="16.8725" y2="39.985" gradientUnits="userSpaceOnUse">
<stop stop-color="#FEB11B"/>
<stop offset="1" stop-color="#FEDA1B"/>
</linearGradient>
</defs>
</svg>
