<svg width="76" height="80" viewBox="0 0 76 80" fill="none" xmlns="http://www.w3.org/2000/svg">
<path d="M74.8325 17.6518L38.5094 0.116484C38.1874 -0.0388281 37.8124 -0.0388281 37.4905 0.116484L1.16723 17.6518C0.762227 17.8473 0.504883 18.2574 0.504883 18.7071V61.2929C0.504883 61.7426 0.762227 62.1527 1.16723 62.3482L37.4903 79.8835C37.6513 79.9612 37.8257 80.0001 37.9999 80.0001C38.1741 80.0001 38.3483 79.9612 38.5094 79.8835L74.8325 62.3482C75.2375 62.1527 75.4949 61.7426 75.4949 61.2929V18.7073C75.4949 18.2573 75.2374 17.8474 74.8325 17.6518ZM37.9999 2.4732L71.6275 18.7071L61.8796 23.413C61.8178 23.366 61.7527 23.3226 61.6811 23.288L28.2819 7.16461L37.9999 2.4732ZM25.6353 8.48961L59.2141 24.6999L52.3368 28.0201L18.7719 11.8163L25.6353 8.48961ZM59.9997 26.923V39.1959L53.5758 42.2971V30.0243L59.9997 26.923ZM73.1511 60.5576L39.1718 76.961V36.9779L47.2769 33.0651C47.8597 32.7837 48.1041 32.0832 47.8227 31.5002C47.5413 30.9176 46.8408 30.6729 46.2578 30.9545L37.9999 34.9412L34.7505 33.3724C34.1675 33.0907 33.4671 33.3354 33.1857 33.9182C32.9043 34.501 33.1486 35.2016 33.7314 35.483L36.828 36.9779V76.961L2.84863 60.5573V20.5741L28.7236 33.0655C28.8878 33.1449 29.0614 33.1824 29.2322 33.1824C29.6678 33.1824 30.0863 32.9384 30.2883 32.5198C30.5697 31.937 30.3253 31.2363 29.7425 30.9549L4.37223 18.7071L16.0136 13.0871L51.2158 30.0813C51.221 30.0885 51.2268 30.0949 51.2321 30.102V44.1643C51.2321 44.5676 51.4394 44.9424 51.781 45.157C51.9707 45.276 52.1871 45.3362 52.4041 45.3362C52.5778 45.3362 52.7521 45.2976 52.9135 45.2196L61.6811 40.987C62.0861 40.7915 62.3435 40.3815 62.3435 39.9316V25.7918L73.1511 20.5743V60.5576Z" fill="url(#paint0_linear)"/>
<defs>
<linearGradient id="paint0_linear" x1="59.2537" y1="22.0606" x2="10.2565" y2="51.2463" gradientUnits="userSpaceOnUse">
<stop stop-color="#FEDA1B"/>
<stop offset="1" stop-color="#FEB11B"/>
</linearGradient>
</defs>
</svg>
