<svg width="80" height="80" viewBox="0 0 80 80" fill="none" xmlns="http://www.w3.org/2000/svg">
<path d="M46.9564 66.0869H33.0433C32.0812 66.0869 31.3042 66.8639 31.3042 67.826C31.3042 68.7882 32.0812 69.5652 33.0433 69.5652H46.9564C47.9185 69.5652 48.6955 68.7882 48.6955 67.826C48.6955 66.8639 47.9185 66.0869 46.9564 66.0869Z" fill="url(#paint0_linear)"/>
<path d="M19.1302 66.0874H13.9128V60.87C13.9128 59.9079 13.1358 59.1309 12.1737 59.1309C11.2116 59.1309 10.4346 59.9079 10.4346 60.87V67.8265C10.4346 68.7886 11.2116 69.5656 12.1737 69.5656H19.1302C20.0923 69.5656 20.8694 68.7886 20.8694 67.8265C20.8694 66.8644 20.0923 66.0874 19.1302 66.0874Z" fill="url(#paint1_linear)"/>
<path d="M67.826 59.1309C66.8639 59.1309 66.0869 59.9079 66.0869 60.87V66.0874H60.8695C59.9074 66.0874 59.1304 66.8644 59.1304 67.8265C59.1304 68.7886 59.9074 69.5656 60.8695 69.5656H67.826C68.7882 69.5656 69.5652 68.7886 69.5652 67.8265V60.87C69.5652 59.9079 68.7882 59.1309 67.826 59.1309Z" fill="url(#paint2_linear)"/>
<path d="M12.1737 52.174C13.1358 52.174 13.9128 51.397 13.9128 50.4349V43.4784C13.9128 42.5163 13.1358 41.7393 12.1737 41.7393C11.2116 41.7393 10.4346 42.5163 10.4346 43.4784V50.4349C10.4346 51.397 11.2116 52.174 12.1737 52.174Z" fill="url(#paint3_linear)"/>
<path d="M67.826 41.7393C66.8639 41.7393 66.0869 42.5163 66.0869 43.4784V50.4349C66.0869 51.397 66.8639 52.174 67.826 52.174C68.7882 52.174 69.5652 51.397 69.5652 50.4349V43.4784C69.5652 42.5163 68.7882 41.7393 67.826 41.7393Z" fill="url(#paint4_linear)"/>
<path d="M40.0001 24.3479C42.8763 24.3479 45.2175 22.0067 45.2175 19.1305C45.2175 16.2543 42.8763 13.9131 40.0001 13.9131C37.1239 13.9131 34.7827 16.2543 34.7827 19.1305C34.7827 22.0067 37.1239 24.3479 40.0001 24.3479ZM40.0001 17.3913C40.9597 17.3913 41.7392 18.1709 41.7392 19.1305C41.7392 20.0901 40.9597 20.8696 40.0001 20.8696C39.0405 20.8696 38.261 20.0901 38.261 19.1305C38.261 18.1709 39.0405 17.3913 40.0001 17.3913Z" fill="url(#paint5_linear)"/>
<path d="M71.3043 0H8.69395C3.89946 0 0 3.90115 0 8.69565V71.3043C0 76.0988 3.90115 80 8.69565 80H71.3027C76.0988 80 80 76.0988 80 71.3043V8.69565C80 3.90115 76.0988 0 71.3043 0ZM8.69395 3.47826H71.3043C74.1805 3.47826 76.5217 5.81946 76.5217 8.69565V11.2891L40 37.8507L3.47826 11.2891V8.69565C3.47826 5.81946 5.81946 3.47826 8.69395 3.47826ZM71.3027 76.5217H8.69565C5.81946 76.5217 3.47826 74.1805 3.47826 71.3043V15.5876L10.4348 20.6471V33.0435C10.4348 34.0056 11.2118 34.7826 12.1739 34.7826C13.136 34.7826 13.913 34.0056 13.913 33.0435V23.1776L38.9776 41.4071C39.2816 41.6296 39.6416 41.7391 40 41.7391C40.3584 41.7391 40.7184 41.6296 41.0224 41.4071L66.087 23.1776V33.0435C66.087 34.0056 66.864 34.7826 67.8261 34.7826C68.7882 34.7826 69.5652 34.0056 69.5652 33.0435V20.6471L76.5217 15.5876V71.3043C76.5217 74.1805 74.1788 76.5217 71.3027 76.5217Z" fill="url(#paint6_linear)"/>
<defs>
<linearGradient id="paint0_linear" x1="44.9289" y1="67.0461" x2="43.5414" y2="71.4547" gradientUnits="userSpaceOnUse">
<stop stop-color="#FEDA1B"/>
<stop offset="1" stop-color="#FEB11B"/>
</linearGradient>
<linearGradient id="paint1_linear" x1="18.6094" y1="62.0083" x2="12.0294" y2="66.1896" gradientUnits="userSpaceOnUse">
<stop stop-color="#FEDA1B"/>
<stop offset="1" stop-color="#FEB11B"/>
</linearGradient>
<linearGradient id="paint2_linear" x1="67.3052" y1="62.0083" x2="60.7253" y2="66.1896" gradientUnits="userSpaceOnUse">
<stop stop-color="#FEDA1B"/>
<stop offset="1" stop-color="#FEB11B"/>
</linearGradient>
<linearGradient id="paint3_linear" x1="13.1595" y1="44.6167" x2="10.2127" y2="45.2409" gradientUnits="userSpaceOnUse">
<stop stop-color="#FEDA1B"/>
<stop offset="1" stop-color="#FEB11B"/>
</linearGradient>
<linearGradient id="paint4_linear" x1="68.8119" y1="44.6167" x2="65.8651" y2="45.2409" gradientUnits="userSpaceOnUse">
<stop stop-color="#FEDA1B"/>
<stop offset="1" stop-color="#FEB11B"/>
</linearGradient>
<linearGradient id="paint5_linear" x1="42.9576" y1="16.7906" x2="36.3776" y2="20.9718" gradientUnits="userSpaceOnUse">
<stop stop-color="#FEDA1B"/>
<stop offset="1" stop-color="#FEB11B"/>
</linearGradient>
<linearGradient id="paint6_linear" x1="62.6738" y1="22.0606" x2="12.2274" y2="54.1171" gradientUnits="userSpaceOnUse">
<stop stop-color="#FEDA1B"/>
<stop offset="1" stop-color="#FEB11B"/>
</linearGradient>
</defs>
</svg>
