<svg width="80" height="80" viewBox="0 0 80 80" fill="none" xmlns="http://www.w3.org/2000/svg">
<path d="M68.5634 35.3497L63.25 14.0945C64.3164 13.0172 65 11.0697 65 8.75C65 5.1875 63.388 2.5 61.25 2.5H16.25C14.1122 2.5 12.5 5.1875 12.5 8.75C12.5 12.3125 14.1122 15 16.25 15H16.5241L11.4366 35.3495C11.3128 35.8452 11.2501 36.3542 11.25 36.8652V76.25C11.25 76.5815 11.3817 76.8995 11.6161 77.1339C11.8505 77.3683 12.1685 77.5 12.5 77.5H67.5C67.8315 77.5 68.1495 77.3683 68.3839 77.1339C68.6183 76.8995 68.75 76.5815 68.75 76.25V36.8655C68.7499 36.3545 68.6873 35.8454 68.5634 35.3497ZM66.25 36.8655V73.2322L62.5 69.4822V38.75C62.5 38.4185 62.3683 38.1005 62.1339 37.8661C61.8995 37.6317 61.5815 37.5 61.25 37.5C60.9185 37.5 60.6005 37.6317 60.3661 37.8661C60.1317 38.1005 60 38.4185 60 38.75V69.4822L56.25 73.2322V36.8655C56.2501 36.5589 56.2876 36.2535 56.3619 35.9561L61.25 16.4036L66.138 35.9556C66.2123 36.2532 66.2499 36.5588 66.25 36.8655ZM61.25 71.7677L64.4822 75H58.0178L61.25 71.7677ZM62.5 8.75C62.5 11.17 61.5611 12.5 61.25 12.5C60.9389 12.5 60 11.17 60 8.75C60 6.33 60.9389 5 61.25 5C61.5611 5 62.5 6.33 62.5 8.75ZM15 8.75C15 6.20609 16.0027 5 16.25 5H58.2097C57.7212 6.18893 57.4798 7.4648 57.5 8.75C57.4798 10.0352 57.7212 11.3111 58.2097 12.5H16.25C16.0027 12.5 15 11.2939 15 8.75ZM13.75 36.8655C13.75 36.5589 13.7876 36.2535 13.862 35.9561L19.1009 15H59.0241L53.9364 35.35C53.8127 35.8457 53.7501 36.3547 53.75 36.8656V75H13.75V36.8655Z" fill="url(#paint0_linear)"/>
<path d="M32.5 35C32.1685 35 31.8505 35.1317 31.6161 35.3661C31.3817 35.6005 31.25 35.9185 31.25 36.25V40H28.75V36.25C28.75 35.9185 28.6183 35.6005 28.3839 35.3661C28.1495 35.1317 27.8315 35 27.5 35C27.1685 35 26.8505 35.1317 26.6161 35.3661C26.3817 35.6005 26.25 35.9185 26.25 36.25V40H23.75V36.25C23.75 35.9185 23.6183 35.6005 23.3839 35.3661C23.1495 35.1317 22.8315 35 22.5 35C22.1685 35 21.8505 35.1317 21.6161 35.3661C21.3817 35.6005 21.25 35.9185 21.25 36.25V41.25H21.2523C21.2515 41.4439 21.2959 41.6353 21.382 41.8091L23.7344 46.5133L22.6936 65.9953C22.6587 66.508 22.7295 67.0225 22.9018 67.5067C23.074 67.9909 23.3439 68.4345 23.6947 68.81C24.0456 69.1856 24.4699 69.485 24.9413 69.6897C25.4126 69.8944 25.9211 70 26.435 70H28.565C29.0789 70 29.5874 69.8944 30.0587 69.6897C30.5301 69.485 30.9544 69.1856 31.3053 68.81C31.6561 68.4345 31.926 67.9909 32.0982 67.5067C32.2705 67.0225 32.3413 66.508 32.3064 65.9953L31.2656 46.5133L33.6177 41.8091C33.7038 41.6353 33.7482 41.4439 33.7473 41.25H33.75V36.25C33.75 35.9185 33.6183 35.6005 33.3839 35.3661C33.1495 35.1317 32.8315 35 32.5 35ZM30.4775 42.5L29.2275 45H25.7725L24.5225 42.5H30.4775ZM29.4798 67.1019C29.3633 67.2281 29.2218 67.3287 29.0643 67.3972C28.9068 67.4658 28.7368 67.5008 28.565 67.5H26.435C26.2633 67.5 26.0935 67.4647 25.9361 67.3962C25.7787 67.3277 25.6371 67.2275 25.5201 67.1018C25.4032 66.9762 25.3133 66.8278 25.2562 66.6659C25.1991 66.5041 25.1759 66.3322 25.1881 66.1609L25.1895 66.1386L26.185 47.5H28.815L29.8105 66.1386L29.8119 66.1609C29.8249 66.3322 29.8021 66.5044 29.7449 66.6664C29.6878 66.8284 29.5975 66.9767 29.4798 67.1019Z" fill="url(#paint1_linear)"/>
<path d="M45.9713 65.9L45 51.2091V36.25C45 35.9185 44.8684 35.6005 44.6339 35.3661C44.3995 35.1317 44.0816 35 43.75 35C36.1155 35 35.0454 48.0989 35.0035 48.6562C34.985 48.9036 35.0404 49.1509 35.1629 49.3666C35.2853 49.5823 35.4691 49.7567 35.691 49.8677L37.5001 50.7725V51.2091L36.529 65.8998C36.4802 66.4195 36.5405 66.9437 36.706 67.4388C36.8714 67.9338 37.1384 68.3889 37.4899 68.7748C37.8413 69.1608 38.2695 69.4691 38.7469 69.68C39.2243 69.891 39.7406 70 40.2625 70H42.2375C42.7596 70.0001 43.2759 69.8912 43.7534 69.6803C44.2309 69.4694 44.6592 69.1611 45.0107 68.7752C45.3622 68.3892 45.6293 67.9341 45.7948 67.439C45.9603 66.9439 46.0206 66.4198 45.9719 65.9H45.9713ZM38.7369 42.8609C39.6976 40.0344 40.9597 38.3148 42.5004 37.7278V50H40.0001C40 49.7679 39.9354 49.5403 39.8134 49.3429C39.6913 49.1454 39.5167 48.9858 39.3091 48.882L37.5857 48.0203C37.8026 46.2675 38.188 44.5397 38.7366 42.8609H38.7369ZM43.1647 67.0888C43.0481 67.219 42.9051 67.323 42.7453 67.3939C42.5854 67.4648 42.4124 67.5009 42.2375 67.5H40.2625C40.0879 67.5 39.9151 67.4634 39.7554 67.3925C39.5958 67.3216 39.4527 67.2181 39.3355 67.0885C39.2183 66.959 39.1296 66.8063 39.075 66.6403C39.0205 66.4744 39.0013 66.2988 39.0188 66.125C39.0202 66.1109 39.0213 66.097 39.0222 66.0831L39.9201 52.5H42.58L43.478 66.0838C43.479 66.0977 43.4799 66.1116 43.4815 66.1255C43.4997 66.2993 43.4809 66.4751 43.4263 66.6411C43.3716 66.8072 43.2824 66.9597 43.1644 67.0888H43.1647Z" fill="url(#paint2_linear)"/>
<defs>
<linearGradient id="paint0_linear" x1="56.2968" y1="23.1818" x2="15.1607" y2="43.2226" gradientUnits="userSpaceOnUse">
<stop stop-color="#FEDA1B"/>
<stop offset="1" stop-color="#FEB11B"/>
</linearGradient>
<linearGradient id="paint1_linear" x1="31.0428" y1="44.6515" x2="20.5196" y2="47.0397" gradientUnits="userSpaceOnUse">
<stop stop-color="#FEDA1B"/>
<stop offset="1" stop-color="#FEB11B"/>
</linearGradient>
<linearGradient id="paint2_linear" x1="43.6085" y1="44.6515" x2="34.2538" y2="46.5178" gradientUnits="userSpaceOnUse">
<stop stop-color="#FEDA1B"/>
<stop offset="1" stop-color="#FEB11B"/>
</linearGradient>
</defs>
</svg>
