<svg width="80" height="80" viewBox="0 0 80 80" fill="none" xmlns="http://www.w3.org/2000/svg">
<path d="M33.7432 9.375H46.2432C47.1056 9.375 47.8057 8.67554 47.8057 7.8125C47.8057 6.94946 47.1056 6.25 46.2432 6.25H33.7432C32.8801 6.25 32.1807 6.94946 32.1807 7.8125C32.1807 8.67554 32.8801 9.375 33.7432 9.375Z" fill="url(#paint0_linear)"/>
<path d="M24.3682 15.625H27.4932C28.3562 15.625 29.0557 14.9255 29.0557 14.0625C29.0557 13.1995 28.3562 12.5 27.4932 12.5H24.3682C23.5051 12.5 22.8057 13.1995 22.8057 14.0625C22.8057 14.9255 23.5051 15.625 24.3682 15.625Z" fill="url(#paint1_linear)"/>
<path d="M49.3682 15.625H55.6182C56.4806 15.625 57.1807 14.9255 57.1807 14.0625C57.1807 13.1995 56.4806 12.5 55.6182 12.5H49.3682C48.5051 12.5 47.8057 13.1995 47.8057 14.0625C47.8057 14.9255 48.5051 15.625 49.3682 15.625Z" fill="url(#paint2_linear)"/>
<path d="M33.7432 12.5C32.8801 12.5 32.1807 13.1995 32.1807 14.0625C32.1807 14.9255 32.8801 15.625 33.7432 15.625H43.1182C43.9806 15.625 44.6807 14.9255 44.6807 14.0625C44.6807 13.1995 43.9806 12.5 43.1182 12.5H33.7432Z" fill="url(#paint3_linear)"/>
<path d="M24.3682 21.875H55.6182C56.4806 21.875 57.1807 21.1755 57.1807 20.3125C57.1807 19.4495 56.4806 18.75 55.6182 18.75H24.3682C23.5051 18.75 22.8057 19.4495 22.8057 20.3125C22.8057 21.1755 23.5051 21.875 24.3682 21.875Z" fill="url(#paint4_linear)"/>
<path d="M55.6182 56.25H24.3682C23.5051 56.25 22.8057 56.9495 22.8057 57.8125C22.8057 58.6755 23.5051 59.375 24.3682 59.375H55.6182C56.4806 59.375 57.1807 58.6755 57.1807 57.8125C57.1807 56.9495 56.4812 56.25 55.6182 56.25Z" fill="url(#paint5_linear)"/>
<path d="M36.869 62.5H24.369C23.5066 62.5 22.8047 63.2013 22.8047 64.0625C22.8047 64.9237 23.5066 65.625 24.369 65.625H36.869C37.7296 65.625 38.4315 64.9237 38.4315 64.0625C38.4315 63.2013 37.7296 62.5 36.869 62.5Z" fill="url(#paint6_linear)"/>
<path d="M43.1172 62.5C42.256 62.5 41.5547 63.2013 41.5547 64.0625C41.5547 64.9237 42.256 65.625 43.1172 65.625C43.9796 65.625 44.6815 64.9237 44.6815 64.0625C44.6815 63.2013 43.9796 62.5 43.1172 62.5Z" fill="url(#paint7_linear)"/>
<path d="M78.4375 25H66.5625V1.5625C66.5625 0.699463 65.863 0 65 0H15C14.137 0 13.4375 0.699463 13.4375 1.5625V25H1.5625C0.699463 25 0 25.6995 0 26.5625V51.5625C0 52.4255 0.699463 53.125 1.5625 53.125H7.1875V78.4375C7.1875 79.3005 7.88696 80 8.75 80H71.25C72.113 80 72.8125 79.3005 72.8125 78.4375V53.125H78.4375C79.3005 53.125 80 52.4255 80 51.5625V26.5625C80 25.6995 79.3005 25 78.4375 25ZM16.5625 3.125H63.4375V25H16.5625V3.125ZM19.6875 28.125H60.3125V31.25H19.6875V28.125ZM69.6875 76.875H10.3125V53.125H13.4375V72.1875C13.4375 73.0505 14.137 73.75 15 73.75H65C65.863 73.75 66.5625 73.0505 66.5625 72.1875V53.125H69.6875V76.875ZM16.5625 53.125H63.4375V70.625H16.5625V53.125ZM76.875 50H3.125V28.125H16.5625V32.8125C16.5625 33.6755 17.262 34.375 18.125 34.375H61.875C62.738 34.375 63.4375 33.6755 63.4375 32.8125V28.125H76.875V50Z" fill="url(#paint8_linear)"/>
<path d="M21.875 45.3125C21.875 46.1755 21.1755 46.875 20.3125 46.875C19.4495 46.875 18.75 46.1755 18.75 45.3125C18.75 44.4495 19.4495 43.75 20.3125 43.75C21.1755 43.75 21.875 44.4495 21.875 45.3125Z" fill="url(#paint9_linear)"/>
<path d="M15.625 45.3125C15.625 46.1755 14.9255 46.875 14.0625 46.875C13.1995 46.875 12.5 46.1755 12.5 45.3125C12.5 44.4495 13.1995 43.75 14.0625 43.75C14.9255 43.75 15.625 44.4495 15.625 45.3125Z" fill="url(#paint10_linear)"/>
<path d="M9.375 45.3125C9.375 46.1755 8.67554 46.875 7.8125 46.875C6.94946 46.875 6.25 46.1755 6.25 45.3125C6.25 44.4495 6.94946 43.75 7.8125 43.75C8.67554 43.75 9.375 44.4495 9.375 45.3125Z" fill="url(#paint11_linear)"/>
<path d="M15.625 39.0625C15.625 39.9255 14.9255 40.625 14.0625 40.625C13.1995 40.625 12.5 39.9255 12.5 39.0625C12.5 38.1995 13.1995 37.5 14.0625 37.5C14.9255 37.5 15.625 38.1995 15.625 39.0625Z" fill="url(#paint12_linear)"/>
<path d="M9.375 39.0625C9.375 39.9255 8.67554 40.625 7.8125 40.625C6.94946 40.625 6.25 39.9255 6.25 39.0625C6.25 38.1995 6.94946 37.5 7.8125 37.5C8.67554 37.5 9.375 38.1995 9.375 39.0625Z" fill="url(#paint13_linear)"/>
<path d="M21.875 39.0625C21.875 39.9255 21.1755 40.625 20.3125 40.625C19.4495 40.625 18.75 39.9255 18.75 39.0625C18.75 38.1995 19.4495 37.5 20.3125 37.5C21.1755 37.5 21.875 38.1995 21.875 39.0625Z" fill="url(#paint14_linear)"/>
<path d="M65.9375 46.875H72.1875C73.0505 46.875 73.75 46.1755 73.75 45.3125V42.1875C73.75 39.6027 71.6473 37.5 69.0625 37.5C66.4777 37.5 64.375 39.6027 64.375 42.1875V45.3125C64.375 46.1755 65.0745 46.875 65.9375 46.875ZM67.5 42.1875C67.5 41.3257 68.2007 40.625 69.0625 40.625C69.9243 40.625 70.625 41.3257 70.625 42.1875V43.75H67.5V42.1875Z" fill="url(#paint15_linear)"/>
<defs>
<linearGradient id="paint0_linear" x1="44.4216" y1="7.11174" x2="43.175" y2="11.0726" gradientUnits="userSpaceOnUse">
<stop stop-color="#FEDA1B"/>
<stop offset="1" stop-color="#FEB11B"/>
</linearGradient>
<linearGradient id="paint1_linear" x1="27.7021" y1="13.3617" x2="25.5865" y2="16.0504" gradientUnits="userSpaceOnUse">
<stop stop-color="#FEDA1B"/>
<stop offset="1" stop-color="#FEB11B"/>
</linearGradient>
<linearGradient id="paint2_linear" x1="55.1502" y1="13.3617" x2="53.3595" y2="16.7756" gradientUnits="userSpaceOnUse">
<stop stop-color="#FEDA1B"/>
<stop offset="1" stop-color="#FEB11B"/>
</linearGradient>
<linearGradient id="paint3_linear" x1="41.9734" y1="13.3617" x2="40.4904" y2="17.1315" gradientUnits="userSpaceOnUse">
<stop stop-color="#FEDA1B"/>
<stop offset="1" stop-color="#FEB11B"/>
</linearGradient>
<linearGradient id="paint4_linear" x1="49.7358" y1="19.6117" x2="49.1255" y2="23.8777" gradientUnits="userSpaceOnUse">
<stop stop-color="#FEDA1B"/>
<stop offset="1" stop-color="#FEB11B"/>
</linearGradient>
<linearGradient id="paint5_linear" x1="49.7358" y1="57.1117" x2="49.1255" y2="61.3777" gradientUnits="userSpaceOnUse">
<stop stop-color="#FEDA1B"/>
<stop offset="1" stop-color="#FEB11B"/>
</linearGradient>
<linearGradient id="paint6_linear" x1="35.0471" y1="63.3617" x2="33.8006" y2="67.3227" gradientUnits="userSpaceOnUse">
<stop stop-color="#FEDA1B"/>
<stop offset="1" stop-color="#FEB11B"/>
</linearGradient>
<linearGradient id="paint7_linear" x1="44.0043" y1="63.3617" x2="42.0333" y2="64.615" gradientUnits="userSpaceOnUse">
<stop stop-color="#FEDA1B"/>
<stop offset="1" stop-color="#FEB11B"/>
</linearGradient>
<linearGradient id="paint8_linear" x1="62.6738" y1="22.0606" x2="12.2274" y2="54.1171" gradientUnits="userSpaceOnUse">
<stop stop-color="#FEDA1B"/>
<stop offset="1" stop-color="#FEB11B"/>
</linearGradient>
<linearGradient id="paint9_linear" x1="21.1982" y1="44.6117" x2="19.2276" y2="45.8639" gradientUnits="userSpaceOnUse">
<stop stop-color="#FEDA1B"/>
<stop offset="1" stop-color="#FEB11B"/>
</linearGradient>
<linearGradient id="paint10_linear" x1="14.9482" y1="44.6117" x2="12.9776" y2="45.8639" gradientUnits="userSpaceOnUse">
<stop stop-color="#FEDA1B"/>
<stop offset="1" stop-color="#FEB11B"/>
</linearGradient>
<linearGradient id="paint11_linear" x1="8.6982" y1="44.6117" x2="6.72763" y2="45.8639" gradientUnits="userSpaceOnUse">
<stop stop-color="#FEDA1B"/>
<stop offset="1" stop-color="#FEB11B"/>
</linearGradient>
<linearGradient id="paint12_linear" x1="14.9482" y1="38.3617" x2="12.9776" y2="39.6139" gradientUnits="userSpaceOnUse">
<stop stop-color="#FEDA1B"/>
<stop offset="1" stop-color="#FEB11B"/>
</linearGradient>
<linearGradient id="paint13_linear" x1="8.6982" y1="38.3617" x2="6.72763" y2="39.6139" gradientUnits="userSpaceOnUse">
<stop stop-color="#FEDA1B"/>
<stop offset="1" stop-color="#FEB11B"/>
</linearGradient>
<linearGradient id="paint14_linear" x1="21.1982" y1="38.3617" x2="19.2276" y2="39.6139" gradientUnits="userSpaceOnUse">
<stop stop-color="#FEDA1B"/>
<stop offset="1" stop-color="#FEB11B"/>
</linearGradient>
<linearGradient id="paint15_linear" x1="71.7196" y1="40.0852" x2="65.8079" y2="43.8418" gradientUnits="userSpaceOnUse">
<stop stop-color="#FEDA1B"/>
<stop offset="1" stop-color="#FEB11B"/>
</linearGradient>
</defs>
</svg>
