<svg width="80" height="72" viewBox="0 0 80 72" fill="none" xmlns="http://www.w3.org/2000/svg">
<path d="M5.33333 72H45.3333C48.2789 72 50.6667 69.6122 50.6667 66.6667V54.6667C50.6667 53.9303 50.0697 53.3333 49.3333 53.3333C48.597 53.3333 48 53.9303 48 54.6667V66.6667C48 68.1394 46.8061 69.3334 45.3333 69.3334H5.33333C3.86057 69.3334 2.66667 68.1394 2.66667 66.6667V44H5.33333C6.06971 44 6.66667 43.4031 6.66667 42.6667C6.66667 41.9303 6.06971 41.3333 5.33333 41.3333H2.66667V5.33333C2.66667 3.86057 3.86057 2.66667 5.33333 2.66667H32V13.3333C32 16.2789 34.3878 18.6667 37.3333 18.6667H48V30.6667C48 31.4031 48.597 32 49.3333 32C50.0697 32 50.6667 31.4031 50.6667 30.6667V17.3333C50.6458 16.9838 50.5098 16.6509 50.28 16.3867L34.28 0.386667C34.0211 0.148383 33.6851 0.0111472 33.3333 0H5.33333C2.38781 0 0 2.38781 0 5.33333V66.6667C0 69.6122 2.38781 72 5.33333 72ZM37.3333 16C35.8606 16 34.6667 14.8061 34.6667 13.3333V4.54667L46.12 16H37.3333Z" fill="url(#paint0_linear)"/>
<path d="M74.6665 29.3337C74.6665 25.6537 71.0798 22.667 66.6665 22.667C62.2532 22.667 58.6665 25.6537 58.6665 29.3337C58.6665 33.0137 62.2532 36.0003 66.6665 36.0003C71.0798 36.0003 74.6665 33.0137 74.6665 29.3337ZM61.3332 29.3337C61.3332 27.1337 63.7198 25.3337 66.6665 25.3337C69.6132 25.3337 71.9998 27.1337 71.9998 29.3337C71.9998 31.5337 69.6132 33.3337 66.6665 33.3337C63.7198 33.3337 61.3332 31.5337 61.3332 29.3337Z" fill="url(#paint1_linear)"/>
<path d="M66.6665 62.6663C71.0798 62.6663 74.6665 59.6797 74.6665 55.9997C74.6665 52.3197 71.0798 49.333 66.6665 49.333C62.2532 49.333 58.6665 52.3197 58.6665 55.9997C58.6665 59.6797 62.2532 62.6663 66.6665 62.6663ZM66.6665 51.9997C69.6132 51.9997 71.9998 53.7997 71.9998 55.9997C71.9998 58.1997 69.6132 59.9997 66.6665 59.9997C63.7198 59.9997 61.3332 58.1997 61.3332 55.9997C61.3332 53.7997 63.7198 51.9997 66.6665 51.9997Z" fill="url(#paint2_linear)"/>
<path d="M79.9999 29.333C79.9999 22.6663 74.0132 17.333 66.6665 17.333C57.9465 17.333 51.5865 24.773 53.7599 32.3197L49.6265 35.733L34.4665 23.1863C32.8329 21.8316 30.728 21.1814 28.615 21.379C26.5019 21.5765 24.554 22.6056 23.1999 24.2397C22.4532 25.1463 21.9732 25.573 22.0399 26.2397C22.0725 26.5938 22.2453 26.9202 22.5199 27.1463L41.2532 42.6663L22.5865 58.1863C22.312 58.4125 22.1392 58.7389 22.1065 59.093C22.1065 59.7463 22.3599 59.9863 23.2665 61.093C24.6207 62.7271 26.5686 63.7561 28.6816 63.9537C30.7947 64.1512 32.8996 63.5011 34.5332 62.1463L49.6265 49.5997L53.7599 53.013C51.5732 60.5863 57.9732 67.9997 66.6665 67.9997C74.0132 67.9997 79.9999 62.6663 79.9999 55.9997C79.9999 47.293 69.9199 41.333 60.9732 45.1463L57.9865 42.6663L60.9732 40.1863C69.9199 43.9997 79.9999 38.0263 79.9999 29.333ZM32.7599 60.093C30.4915 61.9697 27.1315 61.6534 25.2532 59.3863L43.3465 44.3997L47.5332 47.8663L32.7599 60.093ZM61.3332 47.9063C68.4932 44.3463 77.3332 48.8797 77.3332 55.9997C77.3332 61.1463 72.5465 65.333 66.6665 65.333C59.3999 65.333 54.2399 59.0797 56.5465 53.053C56.7543 52.5198 56.5987 51.9136 56.1599 51.5463L25.2532 25.9463C27.1315 23.6793 30.4915 23.363 32.7599 25.2397L59.9199 47.733C60.3181 48.0586 60.8681 48.126 61.3332 47.9063ZM59.9199 37.5997L55.9199 40.933L51.7332 37.4663L56.1865 33.7863C56.6254 33.4191 56.781 32.8128 56.5732 32.2797C54.2399 26.2263 59.4265 19.9997 66.6665 19.9997C72.5465 19.9997 77.3332 24.1863 77.3332 29.333C77.3332 36.4397 68.5465 40.9997 61.3332 37.4263C60.8681 37.2067 60.3181 37.2741 59.9199 37.5997Z" fill="url(#paint3_linear)"/>
<path d="M49.3333 43.9997C50.0697 43.9997 50.6667 43.4027 50.6667 42.6663C50.6667 41.93 50.0697 41.333 49.3333 41.333C48.597 41.333 48 41.93 48 42.6663C48 43.4027 48.597 43.9997 49.3333 43.9997Z" fill="url(#paint4_linear)"/>
<path d="M10.6668 41.333C9.93045 41.333 9.3335 41.93 9.3335 42.6663C9.3335 43.4027 9.93045 43.9997 10.6668 43.9997H14.6668C15.4032 43.9997 16.0002 43.4027 16.0002 42.6663C16.0002 41.93 15.4032 41.333 14.6668 41.333H10.6668Z" fill="url(#paint5_linear)"/>
<path d="M19.9998 43.9997H23.9998C24.7362 43.9997 25.3332 43.4027 25.3332 42.6663C25.3332 41.93 24.7362 41.333 23.9998 41.333H19.9998C19.2635 41.333 18.6665 41.93 18.6665 42.6663C18.6665 43.4027 19.2635 43.9997 19.9998 43.9997Z" fill="url(#paint6_linear)"/>
<path d="M33.3333 43.9997C34.0697 43.9997 34.6667 43.4027 34.6667 42.6663C34.6667 41.93 34.0697 41.333 33.3333 41.333H29.3333C28.597 41.333 28 41.93 28 42.6663C28 43.4027 28.597 43.9997 29.3333 43.9997H33.3333Z" fill="url(#paint7_linear)"/>
<defs>
<linearGradient id="paint0_linear" x1="39.6934" y1="19.8545" x2="2.3167" y2="36.5684" gradientUnits="userSpaceOnUse">
<stop stop-color="#FEDA1B"/>
<stop offset="1" stop-color="#FEB11B"/>
</linearGradient>
<linearGradient id="paint1_linear" x1="71.2013" y1="26.3438" x2="62.2455" y2="33.173" gradientUnits="userSpaceOnUse">
<stop stop-color="#FEDA1B"/>
<stop offset="1" stop-color="#FEB11B"/>
</linearGradient>
<linearGradient id="paint2_linear" x1="71.2013" y1="53.0098" x2="62.2455" y2="59.839" gradientUnits="userSpaceOnUse">
<stop stop-color="#FEDA1B"/>
<stop offset="1" stop-color="#FEB11B"/>
</linearGradient>
<linearGradient id="paint3_linear" x1="67.4457" y1="31.3047" x2="33.8762" y2="55.71" gradientUnits="userSpaceOnUse">
<stop stop-color="#FEDA1B"/>
<stop offset="1" stop-color="#FEB11B"/>
</linearGradient>
<linearGradient id="paint4_linear" x1="50.0891" y1="42.0684" x2="48.4076" y2="43.1369" gradientUnits="userSpaceOnUse">
<stop stop-color="#FEDA1B"/>
<stop offset="1" stop-color="#FEB11B"/>
</linearGradient>
<linearGradient id="paint5_linear" x1="14.5563" y1="42.0684" x2="12.8816" y2="44.7289" gradientUnits="userSpaceOnUse">
<stop stop-color="#FEDA1B"/>
<stop offset="1" stop-color="#FEB11B"/>
</linearGradient>
<linearGradient id="paint6_linear" x1="23.8893" y1="42.0684" x2="22.2146" y2="44.7289" gradientUnits="userSpaceOnUse">
<stop stop-color="#FEDA1B"/>
<stop offset="1" stop-color="#FEB11B"/>
</linearGradient>
<linearGradient id="paint7_linear" x1="33.2228" y1="42.0684" x2="31.5481" y2="44.7289" gradientUnits="userSpaceOnUse">
<stop stop-color="#FEDA1B"/>
<stop offset="1" stop-color="#FEB11B"/>
</linearGradient>
</defs>
</svg>
