<svg width="80" height="80" viewBox="0 0 80 80" fill="none" xmlns="http://www.w3.org/2000/svg">
<g clip-path="url(#clip0)">
<path d="M40 39.9997C39.7733 39.9997 39.5467 39.953 39.3367 39.8597L1.00333 23.193C0.393333 22.9297 0 22.3297 0 21.6663C0 21.003 0.393333 20.403 1.00333 20.1397L39.3367 3.47301C39.76 3.28634 40.24 3.28634 40.6633 3.47301L78.9967 20.1397C79.6067 20.403 80 21.003 80 21.6663C80 22.3297 79.6067 22.9297 78.9967 23.193L40.6633 39.8597C40.4533 39.953 40.2267 39.9997 40 39.9997ZM5.84667 21.6663L40 36.5163L74.1533 21.6663L40 6.81634L5.84667 21.6663Z" fill="url(#paint0_linear)"/>
<path d="M40 53.3335C39.7733 53.3335 39.5467 53.2868 39.3367 53.1935L1.00333 36.5268C0.393333 36.2635 0 35.6635 0 35.0001C0 34.3368 0.393333 33.7368 1.00333 33.4735L16.3367 26.8068C17.1833 26.4401 18.16 26.8235 18.53 27.6701C18.8967 28.5135 18.51 29.4968 17.6667 29.8635L5.84667 35.0001L40 49.8501L74.1533 35.0001L62.3367 29.8601C61.4933 29.4935 61.1033 28.5101 61.4733 27.6668C61.84 26.8201 62.8167 26.4335 63.6667 26.8035L79 33.4701C79.6067 33.7368 80 34.3368 80 35.0001C80 35.6635 79.6067 36.2635 78.9967 36.5268L40.6633 53.1935C40.4533 53.2868 40.2267 53.3335 40 53.3335Z" fill="url(#paint1_linear)"/>
<path d="M40 66.6664C39.7733 66.6664 39.5467 66.6197 39.3367 66.5264L1.00333 49.8598C0.393333 49.5964 0 48.9964 0 48.3331C0 47.6698 0.393333 47.0697 1.00333 46.8064L16.3367 40.1398C17.1833 39.7731 18.16 40.1598 18.53 41.0031C18.8967 41.8464 18.51 42.8298 17.6667 43.1964L5.84667 48.3331L40 63.1831L74.1533 48.3331L62.3367 43.1931C61.4933 42.8264 61.1033 41.8431 61.4733 40.9998C61.84 40.1564 62.8167 39.7631 63.6667 40.1364L79 46.8031C79.6067 47.0698 80 47.6698 80 48.3331C80 48.9964 79.6067 49.5964 78.9967 49.8598L40.6633 66.5264C40.4533 66.6197 40.2267 66.6664 40 66.6664Z" fill="url(#paint2_linear)"/>
<path d="M40 79.9994C39.7733 79.9994 39.5467 79.9527 39.3367 79.8594L1.00333 63.1928C0.393333 62.9294 0 62.3294 0 61.6661C0 61.0028 0.393333 60.4028 1.00333 60.1394L16.3367 53.4728C17.1833 53.1028 18.16 53.4928 18.53 54.3361C18.8967 55.1794 18.51 56.1628 17.6667 56.5294L5.84667 61.6661L40 76.5161L74.1533 61.6661L62.3367 56.5261C61.4933 56.1594 61.1033 55.1761 61.4733 54.3328C61.84 53.4894 62.8167 53.0961 63.6667 53.4694L79 60.1361C79.6067 60.4028 80 61.0028 80 61.6661C80 62.3294 79.6067 62.9294 78.9967 63.1928L40.6633 79.8594C40.4533 79.9527 40.2267 79.9994 40 79.9994Z" fill="url(#paint3_linear)"/>
</g>
<defs>
<linearGradient id="paint0_linear" x1="62.6738" y1="13.4441" x2="38.4401" y2="47.043" gradientUnits="userSpaceOnUse">
<stop stop-color="#FEDA1B"/>
<stop offset="1" stop-color="#FEB11B"/>
</linearGradient>
<linearGradient id="paint1_linear" x1="62.6738" y1="34.0176" x2="47.3892" y2="63.1516" gradientUnits="userSpaceOnUse">
<stop stop-color="#FEDA1B"/>
<stop offset="1" stop-color="#FEB11B"/>
</linearGradient>
<linearGradient id="paint2_linear" x1="62.6738" y1="47.3499" x2="47.3884" y2="76.4844" gradientUnits="userSpaceOnUse">
<stop stop-color="#FEDA1B"/>
<stop offset="1" stop-color="#FEB11B"/>
</linearGradient>
<linearGradient id="paint3_linear" x1="62.6738" y1="60.6829" x2="47.3884" y2="89.8174" gradientUnits="userSpaceOnUse">
<stop stop-color="#FEDA1B"/>
<stop offset="1" stop-color="#FEB11B"/>
</linearGradient>
<clipPath id="clip0">
<rect width="80" height="80" fill="white"/>
</clipPath>
</defs>
</svg>
